<?xml version="1.0" encoding="utf-8"?>
<!-- Generator: Adobe Illustrator 18.1.0, SVG Export Plug-In . SVG Version: 6.00 Build 0)  -->
<svg version="1.1"
	 id="svg2" xmlns:dc="http://purl.org/dc/elements/1.1/" xmlns:cc="http://creativecommons.org/ns#" xmlns:rdf="http://www.w3.org/1999/02/22-rdf-syntax-ns#" xmlns:svg="http://www.w3.org/2000/svg"
	 xmlns="http://www.w3.org/2000/svg" xmlns:xlink="http://www.w3.org/1999/xlink" x="0px" y="0px" viewBox="-78 203.7 841.9 595.3"
	 enable-background="new -78 203.7 841.9 595.3" xml:space="preserve">
<g id="layer1" transform="translate(0,-308.26772)">
	
		<image overflow="visible" width="557" height="468" xlink:href="D681B480.jpg"  transform="matrix(0.4991 0 0 0.476 249.3092 768.0811)">
	</image>
	<text transform="matrix(1 0 0 1 255.9898 779.5444)" font-family="'ArialMT'" font-size="24">B</text>
	<rect x="303" y="833.4" fill="#070707" stroke="#231F20" width="9.5" height="44.5"/>
	<rect x="340.6" y="833.2" fill="#070707" stroke="#231F20" width="9.5" height="21.3"/>
	<rect x="377.2" y="833.4" fill="#070707" stroke="#231F20" width="9.9" height="14"/>
	<rect x="414.7" y="832.9" fill="#070707" stroke="#231F20" width="10.4" height="29"/>
	<rect x="452" y="824.2" fill="#070707" stroke="#231F20" width="9.5" height="8.9"/>
	<rect x="490.2" y="833.4" fill="#070707" stroke="#231F20" width="9" height="14"/>
	<rect id="rect4219_1_" x="492.1" y="775.4" stroke="#000000" stroke-width="6" width="2.5" height="1.1"/>
	<text transform="matrix(0.9352 0 0 1 500.5029 779.5444)" font-family="'ArialMT'" font-size="10.6391">EVs</text>
	<rect id="rect4219-4_1_" x="489" y="784.8" fill="#FFFFFF" stroke="#000000" stroke-width="0.3582" width="8.8" height="7.8"/>
	<text transform="matrix(0.9352 0 0 1 499.7568 792.6)" font-family="'ArialMT'" font-size="10.6391">Cell</text>
	
		<image overflow="visible" width="541" height="459" xlink:href="D681B481.jpg"  transform="matrix(0.4402 0 0 0.4619 8.8333 773.4647)">
	</image>
	<path fill="none" d="M634.8,928.5"/>
	<path fill="none" d="M-1.8,929.5"/>
	<text transform="matrix(1 0 0 1 7.1904 779.5444)" font-family="'ArialMT'" font-size="24">A</text>
</g>
</svg>
